/* XPM */
static char *_4f79e4a1d7840279307286e2588c2ad4UQDyD2PEI9D3Wba[] = {
/* columns rows colors chars-per-pixel */
"64 64 236 2 ",
"   c #12150F",
".  c #0F131D",
"X  c #171917",
"o  c #1B211F",
"O  c #171C27",
"+  c #171B33",
"@  c #0F1620",
"#  c #1D2323",
"$  c #1E222C",
"%  c #1F2823",
"&  c #1B2234",
"*  c #1C233A",
"=  c #172438",
"-  c #232524",
";  c #252828",
":  c #2B332B",
">  c #33322E",
",  c #222532",
"<  c #252B3B",
"1  c #252A37",
"2  c #2D333A",
"3  c #353738",
"4  c #3E433F",
"5  c #1C2446",
"6  c #1F2650",
"7  c #242A44",
"8  c #252A48",
"9  c #2B3244",
"0  c #2C344C",
"q  c #2D394A",
"w  c #343946",
"e  c #232A58",
"r  c #2C335D",
"t  c #293456",
"y  c #333955",
"u  c #1C2B6A",
"i  c #172A7C",
"p  c #242D63",
"a  c #2C3767",
"s  c #343C6C",
"d  c #393E6C",
"f  c #353C65",
"g  c #252A78",
"h  c #2A3377",
"j  c #343C75",
"k  c #39444B",
"l  c #39435A",
"z  c #3D456B",
"x  c #3C4477",
"c  c #494B4B",
"v  c #4D515B",
"b  c #545656",
"n  c #474C57",
"m  c #4C526B",
"M  c #444E79",
"N  c #4C5176",
"B  c #4F546B",
"V  c #5D6574",
"C  c #646668",
"Z  c #74746F",
"A  c #646771",
"S  c #787B7A",
"D  c #655F69",
"F  c #827D7C",
"G  c #7E817A",
"H  c #1C2D83",
"J  c #1A3389",
"K  c #1E3393",
"L  c #1F3998",
"P  c #293588",
"I  c #233693",
"U  c #293B98",
"Y  c #333D9A",
"T  c #30378A",
"R  c #2F3DA6",
"E  c #3B4587",
"W  c #2C4296",
"Q  c #384498",
"!  c #3749A8",
"~  c #3C54A7",
"^  c #3547AB",
"/  c #434D86",
"(  c #4C5689",
")  c #515B88",
"_  c #434C95",
"`  c #4A5699",
"'  c #545C99",
"]  c #5E669A",
"[  c #6D7587",
"{  c #7A7D83",
"}  c #646A98",
"|  c #696B86",
" . c #4757A9",
".. c #535EA9",
"X. c #4554B4",
"o. c #4C5CBA",
"O. c #4859B5",
"+. c #525EB8",
"@. c #424FA4",
"#. c #5A63A2",
"$. c #5B64AC",
"%. c #5967AA",
"&. c #4D61BA",
"*. c #5361B4",
"=. c #5363BB",
"-. c #5A68B9",
";. c #5A73BF",
":. c #626AA7",
">. c #6A75A4",
",. c #626BBB",
"<. c #626BB6",
"1. c #6775B8",
"2. c #727FAC",
"3. c #4C5DC2",
"4. c #535FC2",
"5. c #5B6CC3",
"6. c #5C6DCC",
"7. c #5668C4",
"8. c #5D72CC",
"9. c #5C73C4",
"0. c #5B6DD3",
"q. c #5C72D2",
"w. c #5C72D8",
"e. c #4A63C5",
"r. c #636EC8",
"t. c #6374CD",
"y. c #6777C6",
"u. c #6374D4",
"i. c #6A7CD5",
"p. c #697CDC",
"a. c #6477D7",
"s. c #7179C4",
"d. c #6D7CE1",
"f. c #837D82",
"g. c #7A8192",
"h. c #7685B7",
"j. c #7F84AA",
"k. c #7687C6",
"l. c #6D84D3",
"z. c #6C88DA",
"x. c #758CDD",
"c. c #798DDC",
"v. c #7487D5",
"b. c #7D94DC",
"n. c #7692D7",
"m. c #718ACC",
"M. c #758CE4",
"N. c #798CE4",
"B. c #768DE9",
"V. c #7B8EEB",
"C. c #7286E2",
"Z. c #7590E3",
"A. c #7B92E5",
"S. c #7B92EB",
"D. c #7E99E7",
"F. c #7D92F1",
"G. c #7D98F3",
"H. c #6E86E6",
"J. c #868887",
"K. c #858B99",
"L. c #9A9DA3",
"P. c #8187AF",
"I. c #A5A7A8",
"U. c #A4A9B5",
"Y. c #B9BBB9",
"T. c #B0B2AF",
"R. c #C1BDBC",
"E. c #BFC2BB",
"W. c #C1C2BB",
"Q. c #8496D9",
"!. c #9099CC",
"~. c #97AFDB",
"^. c #9CB3D5",
"/. c #B4BADB",
"(. c #AEB6CB",
"). c #8396E4",
"_. c #839BE4",
"`. c #8294EC",
"'. c #839CEB",
"]. c #8A98E5",
"[. c #8499F4",
"{. c #828FEB",
"}. c #8CA3ED",
"|. c #88A4E8",
" X c #93AAE9",
".X c #9DBAEC",
"XX c #9AB4E9",
"oX c #8DAAF4",
"OX c #8CA7F6",
"+X c #92ACF3",
"@X c #92A9FA",
"#X c #95B4F5",
"$X c #9BB5F4",
"%X c #9BBAF4",
"&X c #96B3FB",
"*X c #9BB6FA",
"=X c #9CBAFC",
"-X c #97B9F8",
";X c #8EB2FF",
":X c #A2B9E7",
">X c #A3BCF4",
",X c #A2BBFE",
"<X c #A3B7FA",
"1X c #AFB8E6",
"2X c #BDC1C6",
"3X c #AAC8EE",
"4X c #A5C2FF",
"5X c #ACC4FE",
"6X c #AAC6F6",
"7X c #B8C9FA",
"8X c #B9D4FC",
"9X c #BDC9E4",
"0X c #DCDEDD",
"qX c #D6D7D7",
"wX c #CACCD0",
"eX c #E3E2DF",
"rX c #DADDE5",
"tX c #C4DCFF",
"yX c #C5D9F1",
"uX c #D3DEF2",
"iX c #DDE1E6",
"pX c #C9E7FF",
"aX c #CDEBFF",
"sX c #70C8A0",
"dX c #70C8A0",
"fX c #70C8A0",
"gX c #70C8A0",
"hX c #70C8A0",
"jX c #70C8A0",
"kX c #70C8A0",
"lX c #70C8A0",
"zX c #70C8A0",
"xX c #70C8A0",
"cX c #70C8A0",
"vX c #70C8A0",
"bX c #70C8A0",
/* pixels */
"cXcXcXcXcXcXcXcXcXcXcXcXcXcXcXcXcXcXcXcXcXcXcXcXcXcXcXcXcXcXcXcXcXcXcXcXzXzXcXcXcXcXcXcXzXzXcXcXcXcXcXcXcXcXcXcXcXcXcXcXcXcXzXkX",
"cXcXcXcXcXcXcXcXcXcXcXcXcXcXcXcXcXcXcXcXcXcXcXcXcXcXcXcXcXcXcXcXcXcXcXcXzXcXcXcXcXcXcXcXcXzXcXcXcXcXcXcXcXcXcXcXcXcXcXcXcXcXzXzX",
"cXcXcXcXcXcXcXcXcXcXcXcXcXcXcXcXcXcXcXcXcXcXcXcXcXcXcXcXcXcXcXcXcXcXcXcXcXcXcXcXcXcXcXcXcXcXcXcXcXcXcXcXcXcXcXcXcXcXcXcXcXcXcXcX",
"cXcXcXcXcXcXcXcXcXcXcXcXcXcXcXcXcXcXcXcXcXcXcXcXcXcXcXcXcXcXcXcXcXcXcXcXcXcXcXcXcXcXcXcXcXcXcXcXcXcXcXcXcXcXcXcXcXcXcXcXcXcXcXcX",
"cXcXcXcXcXcXcXcXcXcXcXcXcXcXcXcXcXcXcXcXcXcXcXcXcXcXcXcXcXcXcXcXcXcXcXcXcXcXcXcXcXcXcXcXcXcXcXcXcXcXcXcXcXcXcXcXcXcXcXcXcXcXcXcX",
"cXcXcXcXcXcXcXcXcXcXcXcXcXcXcXcXcXcXcXcXcXcXcXcXcXcXcXcXcXcXcXcXcXcXcXcXcXcXcXcXcXzXW.b C C C S cXcXcXcXcXcXcXcXzXcXcXcXcXcXcXcX",
"cXcXcXcXcXcXcXcXcXcXcXcXcXcXcXcXcXcXcXcXcXcXcXcXcXcXcXcXcXcXcXcXcXcXcXcXcXcXcXcXcXcXI.  ; % # k cXcXcXcXcXcXcXcXcXcXcXcXcXcXcXcX",
"cXcXcXcXcXcXcXcXcXcXcXcXcXcXcXcXcXcXcXcXcXcXcXcXcXcXcXcXcXcXcXcXcXcXcXcXcXcXcXcXjXjXI.9 k y 0 B jXjXvXcXcXcXcXcXcXcXcXcXcXcXcXcX",
"cXcXcXcXcXcXcXcXcXcXcXcXcXcXcXcXcXcXcXcXcXcXcXcXcXcXcXcXcXcXcXcXcXcXcXcXcXzXcXjX4 ; V /.:Xk.<.] w ; J.cXcXcXcXcXcXcXcXcXcXcXcXcX",
"cXcXcXcXcXcXcXcXcXcXcXcXcXcXcXcXcXcXcXcXcXcXcXcXcXcXcXcXcXcXcXcXcXcXcXzXzXcXcXlX2 & N 1X<Xv.5.%.9 o J.cXcXcXcXcXcXcXcXcXcXcXcXcX",
"cXcXcXcXcXcXcXcXcXcXcXcXcXcXcXcXcXcXcXcXcXcXcXcXcXcXcXcXcXcXcXcXcXcXcXcXcX2XU.U.z a >.7X5XQ.y.1.0 ; J.cXcXcXcXcXcXcXcXcXcXcXcXcX",
"cXcXcXcXcXcXcXcXcXcXcXcXcXcXcXcXcXcXcXcXcXcXcXcXcXcXcXcXcXcXcXcXcXcXcXcXcXb @ 7 :.' !.gXdX Xn.h.t $ J.xXvXzXcXcXcXcXcXcXcXcXcXcX",
"cXcXcXcXcXcXcXcXcXcXcXcXcXcXcXcXcXcXcXcXcXcXcXcXcXcXcXcXcXcXcXcXcXcXcXcXcXV = a ' ` k.dXdX~.m.h.r * K.cXcXxXcXcXcXcXcXcXcXcXcXcX",
"cXcXcXcXcXcXcXcXcXcXcXcXcXcXcXcXcXcXcXcXcXcXcXcXcXcXcXcXcXcXcXcXcXcXcXcXxXg.x ` Q.Q..XdXaX:X XQ.j r m [ Z Z Z J.cXcXcXcXcXcXcXcX",
"cXcXcXcXcXcXcXcXcXcXcXcXcXcXcXcXcXcXcXcXcXcXcXcXcXcXcXcXcXcXcXcXcXcXxXcXxX!...,.<X>X7XpXpX6X4X+Xh j e + $ - X 3 cXcXcXcXcXcXcXcX",
"cXcXcXcXcXcXcXcXcXcXcXcXcXcXcXcXcXcXcXcXcXcXcXcXcXcXvXjX0X0XeX0X0XiXrXuXfXk.X.6.$X.X3XaXaX>X$X]._ _ / z z l q v qX0XjXcXcXcXcXcX",
"cXcXcXcXcXcXcXcXcXcXcXcXcXcXcXcXcXcXcXcXcXcXcXcXcXcXT.- 3 > > > : 2 y j P o.o.5.$XXX3XpXdX~.m.).,X*X$X.X>Xk.1.:.w - S cXcXcXcXcX",
"cXcXcXcXcXcXcXcXcXcXcXcXcXcXcXcXcXcXcXzXcXcXcXcXxXcX(.O < < 1 , 1 * p P I X.o.=.,X>X8XhXdXXXc.'.*X%X=X=X,Xl.r.$.0 # S cXcXcXcXcX",
"cXcXcXcXcXcXcXcXcXcXcXcXcXcXcXcXcXcXzXzXcXT.L.U./.7X!.M ) ) ) ) ( ` ..+.o.6.i.t.l.y.b.5X5Xb.t.x.*X%X#X}.oXv.i.1.0 # S cXcXcXcXcX",
"cXcXcXcXcXcXcXcXcXcXcXcXcXcXcXcXcXcXcXzXvXb O 7 ] %.1.Q.]._.b.).].].`.`.`.S.`.x.J J ~ c.x.5.O.=.%X=X}.z.Z.c.).k.9 o S cXzXcXcXcX",
"cXcXcXcXcXcXcXcXcXcXcXcXcXcXcXcXcXcXcXvXcXV & r 1.-.y.A.l.x.Z.Z.M.N.N.N.`.B.F.C.W J ~ [.D.9.O.9.=X=XOXM.S.A.`.k.q % G zXzXcXcXcX",
"cXcXcXcXcXcXcXcXcXcXcXcXcXcXcXcXcXcXY.b V [ 2.h.}.+X@X@X;X;X;X;X@X@XS.t.p.u.p.a.u.i.7.~ ! z.}.'.D.'.S.Z.B.p.i.<.0 # G cXzXcXcXxX",
"cXcXcXcXcXcXcXcXcXcXcXcXcXcXcXcXcXcXL.@ * >.!.Q.$X=X*X*X,X&X%X%X,X,XD.;.8.0.0.a.S.'.;.i i x.5X*XZ.M.M.S.S.a.u.<.8 O S cXzXcXzXzX",
"cXcXcXcXcXcXcXcXcXcXcXcXcXcXcXcXcXcXU.7 a 2.Q._.>X>X.X6X$X$X$X+X+X=XD.;.a.a.w.a.N.A.9.W W x.=XoXM.M.M.V.c.r.,.#.m 3 J.cXzXcXzXzX",
"cXcXcXcXcXcXcXcXcXcXcXcXcXcXcXcXzXcX9X} 1.}.<X$XsXpXpXsXdXQ.;.i.A.x.|.=X&XG.B.S.A.N.A.N.S.B.Z.M.7.4.+.*.$.j e m lXvXcXcXcXcXcXcX",
"cXcXcXcXcXcXcXcXcXcXcXcXcXcXcXcXxXxX7X$.5.@X=X6XaXpXaXhXgXQ.+.u.B.z.|.=X=XD.x.Z.N.A.S.M.F.F.F.M.=.-.-.%.] l * k vXcXcXcXcXcXcXcX",
"cXcXcXcXcXcXcXcXcXcXcXcXcXcXcXlX/.:X].y.i.OX#X3XpXdX8X:X>XQ.u.C.[.|.oX&X&X}.|.'.Z.Z.V.V.[.a.q.7._ / M N m w 1 c cXcXcXcXcXcXcXcX",
"cXcXcXcXcXcXcXcXcXcXcXcXcXcXcXiXe u  .A.A.&X=X.XpXhX:X#.-.l.A.D.=X=X=X%X%X=X=X*XA.A.N.V.V.! K i p 0 9 2 2 2 ; c vXcXcXcXcXcXcXcX",
"cXcXcXcXcXcXcXcXcXcXcXcXcXcXcXrXx h &.[.x.oX=X.XpXdX>Xy.r.c.b.n.%X#X#X%X*X&X*X&Xx.A.A.N.`. .I P 5 $ - - - ; - 3 zXcXcXcXcXcXcXcX",
"cXcXcXcXcXcXcXcXcXcXcXcXcXcXcXrXt u  .).x.+X-X%X6X7X}.5.;.+X7X6X.X%X%X%X%X=X=X&XA.S.N.M.`. .P E /.2XE.W.Y.R.Y.wXcXcXcXcXcXcXcXcX",
"cXcXcXcXcXcXcXcXcXcXcXcXcXcXcXrX2 7 ( Q.b.+X%X=X%X,X[.5.-.5XgXpX.X%X=X*X#X%X%X&XS.B.B.S.`. .H ' cXcXcXcXcXcXcXcXcXcXcXcXcXcXcXcX",
"cXcXcXcXcXcXcXcXcXcXcXcXcXxXcXiX> , ) Q.v.@X=XoX}.}.V.a.,.>XaX8X%X-X*X=X*X#X#X&XB.S.V.C.c.` u ) xXcXcXcXcXvXcXcXcXcXcXcXcXcXcXcX",
"cXcXcXcXcXcXzXcXcXcXcXcXcXcXcXiX2 & ( ].c.N.).v.T P o.[.N. X>X.X-X-X#X%X=X'.Z.Z.B.S.p.o.*.j 5 v cXcXcXcXcXcXcXcXcXcXcXcXcXcXcXcX",
"cXcXcXcXcXcXcXcXcXcXcXcXcXcXcX0X: < ) ].{.`.N.l.U I X.[.x.oX=X*X%X-X#X=X=X'.M.S.S.S.z.O.$.d < c cXcXcXcXcXcXcXcXcXcXcXcXcXcXcXcX",
"cXcXcXcXcXcXcXcXcXcXcXcXxXcXcX0X: < / v.i.N.S.z.U I O.[.x.+X=X-X%X%X+X}.OXA.M.B.H.H.6.*.#.f O b cXcXcXcXcXcXcXcXcXcXcXcXcXcXcXcX",
"cXcXcXcXcXcXcXcXcXcXcXcXvXcXcXrX3 7 / s.5.z.S.z.U L X.[.x.+X*X*X*X=X}.x.N.N.S.M.6.q.6.*.#.z < b cXcXcXcXcXcXcXcXcXcXcXcXcXcXcXcX",
"cXcXcXcXcXxXcXcXcXcXcXcXcXcXcXbX7 6 E y.8.M.G.B.L L X.S.N.@X*X,X*X,X@XN.V.V.F.V.q.a.6.O.<.f O c cXcXcXcXcXcXcXcXcXcXcXcXcXcXcXcX",
"cXcXcXcXlX(.j.P.A C C C A | } } ] #.$.-.=.X.! ~ e.e.q.[.M.`.).).).'.S.B.V.d.a.u.=.7.o.Y Y !.wXqXcXcXcXcXcXcXcXcXcXcXcXcXcXcXcXcX",
"zXzXcXcXxXh._ ( & # # O + e g P y.y.-.O.o.^ K U w.w.p.S.V.S.Z.Z.Z.A.N.V.F.a.6.6.=.=.! U g yXcXzXcXcXcXcXcXcXcXcXcXcXcXcXcXcXcXcX",
"kXzXvXfXgXh. ...l k k l f E Y ! t.t.9.7.7.^ I U 0.0.i.M.B.B.M.M.B.B.M.M.V.u.6.t.=.*. .h h /.cXzXcXcXcXcXcXcXcXcXcXcXcXcXcXcXcXcX",
"zXcXI.1 y s P Q ~.^.~.XX Xv.8.u.S.x.}.*X,XX.I U 4.o.7.u.6.q.q.q.q.q.8.8.t.=.o.=.*.$./ r 7 (.cXcXcXcXcXcXcXcXcXcXcXcXcXcXcXcXcXcX",
"cXcXL.O 8 a P Q <X5X4X4X4Xx.7.u.A.x._.&X=X~ H U *.-.,.t.u.u.q.q.u.6.q.8.t.&.7.=.*.:.M = O Y.cXcXcXcXcXcXcXcXcXcXcXcXcXcXcXcXcXcX",
"vXcXI.& t j T ! l.v.l.l.l.z.z.Z.'.|.XX5X7X1. . ./ / ` ,.5.6.7.6.6.6.7.8.6.X.X.@./ M V { S qXcXcXcXcXcXcXcXcXcXcXcXcXcXcXcXcXcXcX",
"vXcXI., y a P U P J J J i x.4X=X,X$X8XdXaX|.Q.c.e 5 j $.+.+.*.O.O.+.O.+.=.Y P T a * g.cXcXcXcXcXcXcXcXcXcXcXcXcXcXcXcXcXcXcXcXcX",
"cXcXL.. 1 r j T P I I U J A.4X%XXX X7XaXaX Xb.k.r 6 x :.$.$.$.#.$.#.:.$.$.Q h e 5 . S vXcXcXcXcXcXcXcXcXcXcXcXcXcXcXcXcXcXcXcXcX",
"cXcXjXY.2XB e h ..=.3.3.&.&. .1.8XtX6X X#XA.c.m.a a a d s d d z d d d d j !.7X9X2XY.qXcXcXcXcXcXcXcXcXcXcXcXcXcXcXcXcXcXcXcXcXcX",
"cXcXcXcXcXD + r 1.t.u.w.p.! i _ dXlX6Xm.M.B.M.l.T P p 8 * 1 , , , < , 1 O wXcXcXcXcXcXcXcXcXcXcXcXcXcXcXcXcXcXcXcXcXcXcXcXcXcXcX",
"xXcXcXzXcXF c B ] %.5.6.u.~ P ` 8XtX$Xv.S.[.|.b.U T x m n v b c b c b c c qXxXzXcXzXcXcXcXcXcXcXcXcXcXcXcXcXcXcXcXcXcXcXcXcXcXcX",
"cXcXcXcXcXcXcXjXy 6 E i.u.! I W t.9.t.t.;.5XgX8XY g h.xXxXcXcXcXcXcXcXcXcXcXcXcXcXcXcXcXcXcXcXcXcXcXcXcXcXcXcXcXcXcXcXcXcXcXcXcX",
"cXcXcXcXcXcXcXjXw 8 x ,.t.! K ! 0.a.q.5.%.7XgX8XE p j.cXcXcXcXcXcXcXcXcXcXcXcXcXcXcXcXcXcXcXcXcXcXcXcXcXcXcXcXcXcXcXcXcXcXcXcXcX",
"cXcXcXcXcXzXzXjX3 7 x 1.r.! I U o.O.9.Q.m.8XgX9Xf 8 g.cXxXcXcXcXcXcXcXcXcXcXcXcXcXcXcXcXcXcXcXcXcXcXcXcXcXcXcXcXcXcXcXcXcXcXcXcX",
"cXcXcXcXcXcXzXjX3 7 z ' ..Q I U I i -.5X$XtXdX9Xq & { cXcXcXcXcXcXcXcXcXcXcXcXcXcXcXcXcXcXcXcXcXcXcXcXcXcXcXcXcXcXcXcXcXcXcXcXcX",
"cXcXcXcXcXcXcXjX3 O l } %.Q U U U I 9.,X=XtXhXyXq $ S cXcXcXcXcXcXcXcXcXcXcXcXcXcXcXcXcXcXcXcXcXcXcXcXcXcXcXcXcXcXcXcXcXcXcXcXcX",
"cXcXcXcXcXcXcXvXwXqXL.0 s _  .X.X.X.O. .~ *.%.) 0 $ F cXcXcXcXcXcXcXcXcXcXcXcXcXcXcXcXcXcXcXcXcXcXcXcXcXcXcXcXcXcXcXcXcXcXcXcXcX",
"cXcXcXcXcXcXcXcXcXcXT.O 8 ( ,.-.*.=.~ K K K H a 0 $ f.cXcXcXcXcXcXcXcXcXcXcXcXcXcXcXcXcXcXcXcXcXcXcXcXcXcXcXcXcXcXcXcXcXcXcXcXcX",
"cXxXcXcXcXcXcXcXcXcXY.w n N ' ' ' ..@.U ^ R Y E 0 - f.cXcXcXcXcXcXcXcXcXcXcXcXcXcXcXcXcXcXcXcXcXcXcXcXcXcXcXcXcXcXcXcXcXcXcXcXcX",
"cXcXcXcXcXcXcXcXcXcXcXvXcX[ 5 y t r E =.o.7.r.:.y ; F cXzXcXcXcXcXcXcXcXcXcXcXcXcXcXcXcXcXcXcXcXcXcXcXcXcXcXcXcXcXcXcXcXcXcXcXcX",
"cXcXcXcXcXcXcXcXcXcXcXcXcXA . O O + s :.$.y.s.>.1   Z zXzXzXcXcXcXcXcXcXcXcXcXcXcXcXcXcXcXcXcXcXcXcXcXcXcXcXcXcXcXcXcXcXcXcXcXcX",
"cXcXcXcXzXcXcXcXcXcXcXzXxXI.S J.J.{ | N M ( N N { Z T.cXzXcXcXcXcXcXcXcXcXcXcXcXcXcXcXcXcXcXcXcXcXcXcXcXcXcXcXcXcXcXcXcXcXcXcXcX",
"cXcXcXcXcXcXcXcXcXcXcXzXcXzXzXcXcXcXU.$ 9 9 < n cXcXcXcXzXcXcXcXcXcXcXcXcXcXcXcXcXcXcXcXcXcXcXcXcXcXcXcXcXcXcXcXcXcXcXcXcXcXcXcX",
"cXcXcXcXcXcXcXcXcXcXcXzXzXzXcXcXvXcXL.  ; - O w vXcXcXcXcXcXvXcXcXcXcXcXcXcXcXcXcXcXcXcXcXcXcXcXcXcXcXcXcXcXcXcXcXcXcXcXcXcXcXcX",
"cXcXcXcXcXcXcXcXcXcXcXcXcXcXcXcXcXcXeXT.Y.E.Y.wXcXcXcXcXcXcXcXcXcXcXcXcXcXcXcXcXcXcXcXcXcXcXcXcXcXcXcXcXcXcXcXcXcXcXcXcXcXcXcXcX",
"cXcXcXcXcXcXcXcXcXcXcXcXcXcXcXcXcXcXcXzXcXcXcXcXcXcXcXcXcXcXcXcXcXcXcXcXcXcXcXcXcXcXcXcXcXcXcXcXcXcXcXcXcXcXcXcXcXcXcXcXcXcXcXcX",
"cXcXcXcXcXcXcXcXcXcXcXcXcXcXcXcXcXcXcXzXcXcXcXcXcXcXzXcXcXcXcXcXcXcXcXcXcXcXcXcXcXcXcXcXcXcXcXcXcXcXcXcXcXcXcXcXcXcXcXcXcXcXcXcX"
};
