/* XPM */
static char *_dfa3d58599648b596c9195035dae09bn8JGTOx4vQWBK5xV[] = {
/* columns rows colors chars-per-pixel */
"64 64 256 2 ",
"   c #3A5936",
".  c #296B27",
"X  c #2C7928",
"o  c #347B2C",
"O  c #367829",
"+  c #2D7B33",
"@  c #3B7C33",
"#  c #377837",
"$  c #37672F",
"%  c #2A6918",
"&  c #4C573A",
"*  c #447836",
"=  c #4A7033",
"-  c #543E41",
";  c #397441",
":  c #4E5544",
">  c #556B4E",
",  c #6C6D58",
"<  c #777A65",
"1  c #6B716D",
"2  c #847B67",
"3  c #907F72",
"4  c #87725D",
"5  c #289B19",
"6  c #2D8E19",
"7  c #19B607",
"8  c #1AA917",
"9  c #1DBA1C",
"0  c #1AB716",
"q  c #09B50B",
"w  c #24BA0E",
"e  c #23B51C",
"r  c #24BA1B",
"t  c #29B918",
"y  c #37B719",
"u  c #2CA71D",
"i  c #2B8629",
"p  c #33832C",
"a  c #3B822C",
"s  c #378929",
"d  c #2A9927",
"f  c #339B2B",
"g  c #369728",
"h  c #2D8933",
"j  c #338533",
"k  c #3B8433",
"l  c #3B8C34",
"z  c #3C8C3B",
"x  c #388839",
"c  c #2A9932",
"v  c #359335",
"b  c #3C9333",
"n  c #389738",
"m  c #1BB926",
"M  c #1CAF2C",
"N  c #28A827",
"B  c #35A627",
"V  c #28B826",
"C  c #36BA27",
"Z  c #35A433",
"A  c #38A933",
"S  c #2DB932",
"D  c #34B735",
"F  c #2EA735",
"G  c #1B931F",
"H  c #48B91A",
"J  c #5ABA1A",
"K  c #4DB413",
"L  c #68BB1A",
"P  c #74BD1A",
"I  c #6BA51D",
"U  c #45882B",
"Y  c #479727",
"T  c #438435",
"R  c #438C33",
"E  c #44833C",
"W  c #438B3A",
"Q  c #4B8B39",
"!  c #469538",
"~  c #549837",
"^  c #519330",
"/  c #4AA62A",
"(  c #57A727",
")  c #47B827",
"_  c #59B928",
"`  c #57A736",
"'  c #59B634",
"]  c #49B039",
"[  c #63A827",
"{  c #69BB27",
"}  c #75BB28",
"|  c #67B835",
" . c #79BB36",
".. c #68AD32",
"X. c #449917",
"o. c #1AC616",
"O. c #18CA0B",
"+. c #23C31B",
"@. c #24CA1C",
"#. c #28C819",
"$. c #37C81A",
"%. c #24D21A",
"&. c #2EC90F",
"*. c #1AC824",
"=. c #2CC524",
"-. c #2BC329",
";. c #26C825",
":. c #37C728",
">. c #29C833",
",. c #38C63A",
"<. c #31D329",
"1. c #30E22C",
"2. c #48C61A",
"3. c #58C619",
"4. c #53CE13",
"5. c #6CC314",
"6. c #6CC41D",
"7. c #68C91A",
"8. c #73C51C",
"9. c #73CA1C",
"0. c #78C717",
"q. c #69D41A",
"w. c #7AD419",
"e. c #6EC90C",
"r. c #48C727",
"t. c #58C827",
"y. c #51CE32",
"u. c #6BC324",
"i. c #6CCB24",
"p. c #67C72A",
"a. c #74C423",
"s. c #7BC523",
"d. c #73CB23",
"f. c #7BCB23",
"g. c #73C42B",
"h. c #7AC52C",
"j. c #74CB2B",
"k. c #7CCA2B",
"l. c #6CD428",
"z. c #78D526",
"x. c #68C836",
"c. c #7CCC32",
"v. c #78C737",
"b. c #79D534",
"n. c #62D335",
"m. c #3C8943",
"M. c #369444",
"N. c #34A843",
"B. c #478A45",
"V. c #489445",
"C. c #57914D",
"Z. c #688E59",
"A. c #53B04E",
"S. c #6EB250",
"D. c #769071",
"F. c #78AF6F",
"G. c #5FA66A",
"H. c #3DC242",
"J. c #50C84D",
"K. c #6FCD4C",
"L. c #5AC762",
"P. c #6FD06E",
"I. c #8CBA3E",
"U. c #82CC1D",
"Y. c #83C62A",
"T. c #85D827",
"R. c #87C936",
"E. c #86D637",
"W. c #94D63A",
"Q. c #90DA2B",
"!. c #90E02F",
"~. c #95BC53",
"^. c #9A8979",
"/. c #8E8E74",
"(. c #A2977C",
"). c #A9877E",
"_. c #8FB873",
"`. c #86CB48",
"'. c #88D646",
"]. c #93D547",
"[. c #8BC654",
"{. c #95C858",
"}. c #87D65B",
"|. c #96D756",
" X c #94CC44",
".X c #A1D254",
"XX c #88C766",
"oX c #98C869",
"OX c #99D467",
"+X c #90CF71",
"@X c #A8D969",
"#X c #A6CB75",
"$X c #A9D277",
"%X c #9EE266",
"&X c #B4E77C",
"*X c #A5E366",
"=X c #9EE35C",
"-X c #788B88",
";X c #928E86",
":X c #AC9A8B",
">X c #95BA8A",
",X c #91AE8A",
"<X c #BCAA95",
"1X c #AFAD8F",
"2X c #8FAAA4",
"3X c #B4B4AF",
"4X c #A298A1",
"5X c #C8B89C",
"6X c #CEB599",
"7X c #CCBCA3",
"8X c #CAB8A7",
"9X c #D2BDA5",
"0X c #CBB4AC",
"qX c #E1BCB5",
"wX c #93D190",
"eX c #BADA97",
"rX c #AAD08D",
"tX c #B7E787",
"yX c #BBE696",
"uX c #ABE283",
"iX c #B3D0B3",
"pX c #B5E3AC",
"aX c #CBC4A8",
"sX c #D2C1A5",
"dX c #D6C6AB",
"fX c #C7C8B9",
"gX c #D8C8B5",
"hX c #CDD6B7",
"jX c #CFD8AD",
"kX c #E2CDB8",
"lX c #E4CEB2",
"zX c #D8F3BA",
"xX c #CCECAE",
"cX c #CCE6A1",
"vX c #A8C5C9",
"bX c #AFCED2",
"nX c #9CCDCA",
"mX c #C9D5C6",
"MX c #D4D1C9",
"NX c #E1DBD0",
"BX c #D8F3C7",
"VX c #D6EBD6",
"CX c #D2E8CA",
"ZX c #E9FAD8",
"AX c #E9F0D4",
"SX c #EAEDE4",
"DX c #EAF7E8",
"FX c #F7FBEB",
"GX c #F4FCF3",
"HX c #FDFDF5",
"JX c #FDF5FD",
"KX c #F5FEFD",
"LX c #FEFEFE",
"PX c #F6F6F6",
"IX c #F4F2EE",
"UX c #EEDFE2",
/* pixels */
"LXLXLXLXLXLXLXLXLXLXLXHXLXLXKXLXHXLXKXLXLXFXLXLXKXHXPXBXtXuX%X.X*XuXtXcXxXBXZXDXLXKXLXLXLXKXKXKXLXLXLXLXLXLXLXKXLXLXLXLXLXLXLXLX",
"LXLXLXLXLXLXLXLXLXLXLXLXLXLXHXLXLXLXLXLXHXLXLXSXcX@XE.b.T.U.f.b.z.d.T.T.f.E.E.E.].=X&XBXLXHXHXLXLXLXLXLXLXLXHXLXLXLXLXLXLXLXLXLX",
"LXLXLXLXLXLXLXLXLXLXLXLXLXLXHXHXKXLXHXDXzXyX|.E.w.w.R.|.n.:.$.:.2.l.U.v.c.].x.K e.8.5.e.].BXLXLXLXLXLXLXLXLXLXHXLXLXLXLXLXLXLXLX",
"LXLXLXLXLXLXLXLXLXLXLXLXLXLXLXLXLXHXeXk.9.7.9.Y.j.3.y.y.t m e t m r.Y.f.7.'.7.v.rXeXeXOX6.E.xXKXHXLXLXHXLXLXLXLXLXLXLXLXLXLXLXLX",
"LXLXLXLXLXLXLXLXLXLXLXKXLXLXJXLXFX{.P J :.V 2.$.P.J.0 o.e r J.L.t K.|.w.b.@XW.DXLXLXLXPXyXw.T.xXLXLXLXLXLXLXLXLXLXLXLXLXLXLXLXLX",
"LXLXLXLXLXLXLXLXLXLXLXLXHXLXLXLX#Xu.$.m >.;.9 V r.D V 9 V 0 A [.T.!.W.T.'.$X.XeXrX#X#XoX].R.R.T.ZXLXLXLXHXLXKXLXLXLXLXLXLXLXLXLX",
"LXLXLXLXLXLXLXLXLXLXLXLXHXLXKXxX8.x.C t.6.B >.e m m t | K._ z.W.E.j.^ ` f.Y.w.z.z.|.'.q.q.T.T.z.&XZXLXLXLXLXLXHXLXLXLXLXLXLXLXLX",
"LXLXLXLXLXLXLXLXLXLXLXLXHXLXHX~.9.:.2.Q.Q.z.H S ) y i.@X$XT.T.| ~ k l x j V.` ..~ ` ~ ..E.l.p.E.w.tXGXLXLXLXLXLXLXLXLXLXLXLXLXLX",
"LXLXLXLXLXLXLXLXLXHXLXJXLXGX{.5.p.y a.j.Y.f.f.i.s.c.f.w.g.| / x n s k G._.a k ; k k j T S.} 9.v.d.4.cXKXLXJXHXLXLXLXLXLXLXLXLXLX",
"LXLXLXLXLXLXLXLXLXLXKXLXCXK.{ uX{.0.Y.h.0.I.}.0.q.a.h._ U E @ B./.C.v B.F.Z m C g + B.F.+ i p.9.h._ '.FXKXLXLXKXLXLXLXLXLXLXLXLX",
"LXLXLXLXLXLXLXLXLXLXKXIXK.&.2.#X{.0.P i.6.c.iX@X6...R W m.b B A ) V D j x A <.@.N D x Z.@ j ! { s.g.2.&XLXLXJXGXLXLXLXLXLXLXLXLX",
"LXLXLXLXLXLXLXLXLXKXLX$X&.m :.5.p.j.OXv.R.{ p.[ ^ i m.Z.] -.C N v R O x E U b O 2 g %.5 # # O ' z.a.) 7.xXLXLXHXLXLXLXLXLXLXLXLX",
"LXLXLXLXLXLXLXLXLXGXSXp.e ) H g.d.5.#XK.>XV.f z m.! Q f =.N $ k # x Z S C D . 3 gX> Z =.;.V./.X.p.g.k.a.].KXKXLXLXLXLXLXLXLXLXLX",
"LXLXLXLXLXLXLXLXLXLXeX7 g. X@Xs.Y.d.C B Z k W W ( z n =.=.d Z 6 g D u B N F . /.lX> k E B V + k ! ' 4.x.q.yXLXLXLXLXLXLXLXLXLXLX",
"LXLXLXLXLXLXLXLXKXLXv.y R.mXCXY.p.=.h A d W T / [ m.N.%.=.:.%.=.v a . # $ # . (.kX, 9 F * ! h @ o f >.;.&.j.ZXLXLXLXLXLXLXLXLXLX",
"LXLXLXLXLXLXLXLXLXIXt.p.a.} { 0.2.M.~ s U v B./ k ! V #.@.*.C B + k ! ( ( / $ :XlX< 6 N S 5 O x s Z.wX=.J a.=XKXLXLXLXLXLXLXLXLX",
"LXLXLXLXLXLXLXLXHXCX6.k.x.W.`.Y.B A.C.E B.b W E W N =.@.C y.T.^ ( g.{ | { x.$ :XMX< U # c V B c 6 D.+X5.R.g.T.DXLXHXKXLXLXLXLXLX",
"LXLXLXLXLXLXLXLXKXaXL 9.s.IXzX3.=.i b l W s v f V V -.C d.T.Q.z.| O + h X o ; :XlXZ.} Y # k u y 5 m.y.h.a.a.f.AXLXLXLXLXLXLXLXLX",
"LXLXLXLXLXLXLXLXKXrX7.d.Y._.~.t.e l l l W n Z V f F :.h.Q.z.d.y.M D V S F v # 1XlX< X o @ @ x M r i B f.6.g.9.&XLXLXLXLXLXLXLXLX",
"LXLXLXLXLXLXLXLXKX[.R.j.g.7.8.XXv l rXV.k B.e u Q z t.T.n.2.C N.Z v Q Q C 1.i <XgX^.d V s # ; B 9 p [ q.R.a.9.c.DXLXLXLXLXLXLXLX",
"LXLXLXLXLXLXLXLXAX_.CXa.c.k.s.S.B.p ,XV.R ! 0 z ! N 3.l.;.u l T E v A r @.l & (.lX:XX %.u s s g V d Q 6.0.k.s.l.zXLXLXKXKXLXLXLX",
"LXLXLXLXLXLXLXLXAXv.'.g.[.'.0.) i R o l R B N B.! V $.<.9 R x b z u i Z.> < 0X^.lX0X& f c p v g +.m i oXc.8.s.9.tXHXLXLXKXHXLXKX",
"LXLXLXLXLXLXLXLXcXy 4.h.s.5.c.J h ! Q v R g N @ ! V +.=.d E ! M.m.* < qXsX^.2 :X9X5X< < O p @ f 0 :.L wXpX0.j.0.].DXLXLXKXHXLXKX",
"LXLXLXLXLXLXLXLXOXy i.s.c.v.[.hXV.F.C.h Q V.V g M +.r F E v g = (.9X<X2 5XkX/./.jX<X/.lX< + p T M t.Y.L jXuX3.Y.9.ZXLXLXKXHXLXKX",
"LXLXLXLXLXLXLXLXOX{ l.5.oXNX{.hXA.T v l b M.0 o.m +.9 h E M.@ ^.gX7XgX<X^.7XdX:X9X1X<XgX(.$ i @ d r.g.d. .mX'.8.s.cXLXHXLXLXLXLX",
"LXLXLXLXLXLXLXPXx.{ a.d.L >XcXY C.l v V.* R F.] w V 5 R Q a > 8X7X<X7XsX5X7XdX7X7X3X9XdX:X$ k o U r p.7.e._.hX6.5.OXGXLXLXLXLXLX",
"LXLXLXLXLXLXLXPX..r.R.7.Y.8. .^ F.l z l R ! IXwX7 >.N @ W g > dX<X/.:XgXaX9X5XsX9X0X9XdX, O T O k N 7.P r.6.rX}.5.'.FXLXLXLXLXHX",
"LXLXLXLXLXLXLXLXy.r.oX[.SX`.6.U k k l b p F.SXL.9 e N m.V.d * qXaXaX/.5X7XdXsXsX5X9XaX8X= c b s O Z $.0.x.0.} { { l.ZXLXKXLXLXLX",
"LXLXLXLXLXLXLXHX] r.s.{.pXi.w.S.x z n R B.mXS.7 V +.8 Q W V d /.gXdX2 7XdX9X7XsX5X5XkX> 5 S ) Y # x V t.{.`.0.`.K.7.AXLXLXLXLXLX",
"LXLXLXLXLXLXLXAXH x.8.w.8.}. .mXC.l v * V.F.( K.9 D Z a ! u y d , 2 (.dX7X7X7XsXaXdX).> r -.r.{ o @ D r.8.h.} oX`.b.FXLXHXLXLXLX",
"LXLXLXLXLXLXHXhXy 6.R.p.`.rXf.~.W R W V.s b F.rXq wXrX+ V...E.C , 8XdXdXsXsXdX8XaX5X: yXJ.r <.j.z l N n.e.oX$X6.g.E.DXPXLXLXLXLX",
"LXLXLXLXLXLXFXhXy 4.v.h.a.5.0.( x ! x z B.k rXL.q rXrXp B.' / $ ^.gX7X7X9XsX7X7XgX, >X$XwXo.=.j.4.d Y _ k.u.f.f.9.R.DXLXLXKXLXLX",
"LXLXLXLXLXLXHXVXJ ) h.s.0.g.k./ v U m.M.l W 1XrX,.P.rXx b ~ !   1XgX7XsX6X9XaXdX;X= {.'.XX#.C j.y.N ^ r.j.0.p.j.i.R.FXLXLXLXLXLX",
"LXLXLXLXLXLXLXSX{ 3.f.) 2.[.].J # 8 b T R l ' rXA.S x.U W ! ! & 8XsXaX5X9XdX7X7X: l } s.| =.f ! C 5 ` i.r.5.v.s.j.W.PXLXLXLXLXLX",
"LXLXLXLXLXLXLXDX| 3.9.u y.g.p.p.h Z G W l m.| C V r ) ~ l ! ! : 8XaX5X9XgX9XdX, X ! J p.f.A g E Z d f p.r.y.oX0.u.|.LXLXLXLXLXLX",
"LXLXLXLXLXLXLXGX .5.9.F.VX}.t r.N B 8 m.z m./ ;.o.r z ` b g . : 6XaX5X8X5X9X(.  V a _ :.g.b c B.n -.-.n.g.y.R.g.a.@XLXLXKXLXLXLX",
"LXLXLXLXLXLXLXHX`.0.5.oXIX`.9 r V 0 r z Y W b Y V V j Q z % > 1 4 8X6X1X1X<X& k N p ) V Y Y v B.C @.-.J { p.e.v.E.tXLXLXLXLXLXLX",
"LXLXLXLXLXLXLXLXF.r.9.{ Y.4.0 f N r w d ' Q B.W n y 5 # : : 2XbX> 2 6X6X9X^.$ Z i Z 2.B W g f W =.V p ( j.g.{.k.Y.yXLXKXLXLXLXLX",
"LXLXLXLXLXLXLXLX_.w 9.z.s.) G ,XwX8 w N ! U v x T B C   - 2XnXvXvX1 , 3 ^.: m.d Y _ 2.M.C.g c W V S * G.`.0.oXg.a.cXLXLXLXLXKXLX",
"LXLXLXLXLXLXHXHX' r. .6.g.o.f SX>X0 S +.5 # [ ' l b X D.;X-XnXvXbXbX2X-X  # p @ { i.B M.[ / c B.=.d W V. .s.e.j.f.xXLXKXHXLXLXLX",
"LXLXLXLXLXLXHXSX) t.U.s.{ 0 iXUXc 9 V V V @ / ..k X   3XfX, vXbXvXvXbX2X& # h R } 7./ ! g.y M.A V U x j p.f. .d.R.ZXLXKXLXKXLXLX",
"LXLXLXLXLXLXLXFXx.3.g.s.t.e wXL.B H 0 e +.y I ! R $ -XNXMX1X1 3XbXbXvX1 3X> k + ( 3.C.~ T.A # ] N ! i U t.| $X|.|.GXLXLXLXLXLXLX",
"LXLXLXLXLXLXLXPX' p.}.w._ 9 m y l.a.t.V 0 +.p.Y # > fXfXmXmX3X1 -XvX-X;XNX, . U ) V ,X .9.R ` / N W c ( 7.u.`.s.tXLXLXKXLXLXLXLX",
"LXLXLXLXLXLXLXGX' L.eXu.L V V x.z.p.i.0 V m >.[ . D.CXhXfXiXMXmX:X-X, D.1 = } x.%.z ,X2._ ^ } D 5 n 0 i.l.d.0.e.xXLXLXKXLXLXLXLX",
"LXLXLXLXLXLXLXLXS.=.0.u.7.u 0 q.T.y.p.C t 9 8 ! Y C.iXMXMXMXhXfXCXMXhX3X: { 3.*.8 E ` <.| { ( i Y n t a.t.j.s.b.zXLXLXLXLXLXLXLX",
"LXLXLXLXLXLXLXLXjXH P eXR.{ m t.Q.p.b.C 0 #.e x | p Z.iXmXfXiXMXiXmXNX, [ 4.9 -.k @ J <.r.Y.V.Z.z n p.} p.9.P s.zXLXHXKXLXLXLXLX",
"LXLXLXLXLXLXLXLXVXh.d.XXR.s.$.:.T.b.T.y m r 0 i o a O * C.>XmXMXiXNX1 6 <.C 0 h O W t.2.r.t.B.F.Y ) a.i.d.8.c.Y.BXLXHXKXLXLXLXLX",
"LXLXLXLXLXLXLXLXLXK.4.j.8.6.j.;.p.:.q.E.t V V X k * @ + X S.aXMXMX;X6 ;.m ;.f X d | r.t.$./ B.Y t.;.j.7.p.k.a.b.DXLXLXKXLXLXLXLX",
"LXLXLXLXLXLXLXLXLXAXy.0.R.eXx.:.=.;.$.z.] e o.9 g O k T o p ~ S._.f V +.w V N N V +.:.C B l m._ L e c.Y.a.a.9.OXLXLXLXLXLXLXLXLX",
"LXLXLXLXLXLXLXLXHXLXL.4.K.P.;.;.=.o.H.uXb.H N C ;.d T ` / * . p 6 g Z N e -.V t C r V b B.z f ~.XXr.u.i.9.`.|.&XLXLXLXLXLXLXLXLX",
"LXLXLXLXLXLXLXLXLXKXpX#.>.+.V ;.#.>.C K.d.u.'.7.+.N X U { j.[ / n Z M *.V B _ l.$.e d S l R / $XY.z.u.t.j.8.0.zXLXLXLXLXLXLXLXLX",
"LXLXLXLXLXLXLXLXLXKXLX,.*.@.@.:.*.=.=.*.z.a.L t.m a @ j s | k.u.' ` ( _ _ H :.%.M s F d v ^ P 8.a.x.g.p.h.j.'.LXLXLXLXLXLXLXLXLX",
"LXLXLXLXLXLXLXLXLXJXHXpXw ,.q ;.;.&.=.;.2.b.v...#.F O j h a p l U ` a.a.' A B v E F.>XF.F.( k.k.t.r.8.R.a.i.tXLXLXLXLXLXLXLXLXLX",
"LXLXLXLXLXLXLXLXKXGXLXLXJ.O.J.J.o.P.L.O.*.<.n.d.t C i # @ O T X a p p T @ o j B.bXSXfXrX] l.s.0.t.t.R.OXa.k.ZXKXLXLXLXLXLXLXLXLX",
"LXLXLXLXLXLXLXLXLXGXKXKXDX+.J.P.t NXDX,.$.-.=.2.r l.t.i * # # @ # a a @ o o a o B./.>Xd 3.z.} c.x.v.P 9.0.@XHXLXLXLXLXLXLXLXLXLX",
"LXLXLXLXLXLXLXLXJXLXHXLXLXVXA.O.-.wXwXy.O.-.+.y.t.t y._ t.) 5 z B | U . k o O # i b M x.P u.f.s.oXg.d.c.a.xXLXFXLXLXLXLXLXLXLXLX",
"LXLXLXLXLXLXLXLXLXLXLXLXLXLXGXmX:.o.o.*.J.P.o.:.w.k.p.:.=.=.$.$.>.N 5 f h i l n C o.J.rX'.a.k.3.r.3.j.a.W.GXHXLXLXLXLXLXLXLXLXLX",
"LXLXLXLXLXLXLXLXLXLXLXLXLXLXLXGXVX:.o.J.K.;.*.-.<.l.Q.z.K +X$X0.8.T.c.2.-.>.;.%.H | 5.P [.{.3.r. .}.5.].BXHXLXHXLXLXLXLXLXLXLXLX",
"LXLXLXLXLXLXLXLXLXLXLXLXLXLXLXLXLXxX0 r._ K _ 7.t.y.r.2.t.t.x.K.+Xn.y.<.;.;.o.-.3.|.`.7.a.u.i.f.c.j.W.DXHXHXLXKXLXLXLXLXLXLXLXLX",
"LXLXLXLXLXLXLXLXLXLXLXLXLXLXLXLXJXLXwXt ].@XE.E.W. XR.'.$X#XK.*.-.<.:.;.;.=.<.y.K.{ c.a.Y.U.3.C p.*XDXLXLXLXHXLXLXLXLXLXLXLXLXLX",
"LXLXLXLXLXLXLXLXLXLXLXLXLXLXLXLXHXLXJXwX>.x.d.s.v.9.XXpX[.9.) S 7 P.L.o.o.L.XX' oX9.9.P 8.l.}.tXZXLXLXLXLXLXHXLXLXLXLXLXLXLXLXLX",
"LXLXLXLXLXLXLXLXLXLXLXLXLXLXLXLXKXJXLXLXcX,.;.4.e.s.0.0.v.k.0.Y.t._ y S.S.{ c.9.g.6.L |.BXPXLXLXJXHXKXLXLXHXLXLXLXLXLXLXLXLXLXLX",
"LXLXLXLXLXLXLXLXLXLXLXLXLXLXLXLXLXLXKXGXLXLXpXP.J.:.$.#.$.2.2.3.4.7.3.t.n.t.u.u.a. XcXIXHXHXHXHXGXGXKXHXLXLXKXLXLXLXLXLXLXLXLXLX",
"LXLXLXLXLXLXLXLXLXLXLXLXLXLXLXLXLXLXKXKXLXKXKXLXDXCXwXwXP.P.P.P.P.L.P.P.P.}.%XyXBXGXLXLXKXKXHXKXLXJXLXHXLXHXLXLXLXLXLXLXLXLXLXLX"
};
