/* XPM */
static char *_e8335f625cd40badc36733a2ec022be1kmnUiZEh2PXpA8s[] = {
/* columns rows colors chars-per-pixel */
"64 64 6 1 ",
"  c #70C8A0",
". c #68C49C",
"X c #79CEA9",
"o c #5CBF96",
"O c #50B890",
"+ c #87D5B2",
/* pixels */
"                                                                ",
"                                                                ",
"                                                                ",
"                                    .o                          ",
"                                 o. oO  o.                      ",
"                                 Oo.oO .O.                      ",
"                                  Oo  .O.                       ",
"                                       .                        ",
"                                                     +          ",
"XX                                               XX  +  XX      ",
"XX       .o.                                     XXX X XXX      ",
"X     .. .O. ..                                   XX   XX     o.",
"      oO..O..Oo              ..                               Oo",
"       oO   Oo            .  oO  .                             o",
"                          Oo oO  Oo                             ",
"                          .Oo ..Oo                              ",
"                           ..   o                               ",
"                 +                                              ",
"             XX X+X XX                                          ",
"             ++XX+ X++                                          ",
"              ++   +X                                           ",
"                   X                                            ",
"                                                                ",
"                                                                ",
"                                                                ",
"                                                                ",
"                                             .                  ",
"                                         .. .O. .               ",
"                                         Oo .O. Oo              ",
"                            oO            OO . Oo               ",
"                         O. OO  O.        ..   ..               ",
"X          o.            oO..o.Oo.                     XX       ",
"X  X   .o .O. .o          o.  .o                    X  +X  X   .",
"X X+   oO. O..oo                                   X+X XX X+   o",
" X+     .O   Oo                                      +   X+     ",
"                                                                ",
"                                   ++                           ",
"                               X+X ++  +X                       ",
"                                ++XXXX++                        ",
"                                 +X  X+                         ",
".                                                      ..       ",
"O  .                                                .  Oo  .    ",
"o .O.                                              .O. Oo oO    ",
" .O.                                                oO.. oO.    ",
" ..                                                  .   ..     ",
"               XX         o.                                    ",
"            X  X+  X  .o  Oo .o                                 ",
"            +X XX X+X .Oo O..oO                                 ",
"             XX   +X   .O.  oO                                  ",
"                                                                ",
"                                    X+          Oo              ",
"                                 +X X+  +X  .O  Oo .O           ",
"                                 XXX X XX   .oO....Oo           ",
"                                  XX   X      o.  .o            ",
"                                                                ",
"                                                                ",
"                                                                ",
"                                                                ",
"                                                                ",
"                                    oo                          ",
"                                 o. oO  o.                      ",
"                                 Oo..o oO.                      ",
"                                  Oo  .O.                       ",
"                                                                "
};
