/* XPM */
static char *ba2f38dd24a541ecb71cf2e606757e61hipHiIEGu9v8u9Wj[] = {
/* columns rows colors chars-per-pixel */
"100 100 6 1 ",
"  c #40B088",
". c #6FC79F",
"X c #70C7A0",
"o c #70C8A0",
"O c #88D8B8",
"+ c #A0E0C0",
/* pixels */
"oooooooooooooooo  ooooooo  ooooooooooooooooooooooooooooooooo  oooooooooooooooooooooooooooooooooooooo",
"oooooooooooooooo  ooooooo  ooooooooooooooooooooooooooooooooo  oooooooooooooooooooooooooooooooooooooo",
"ooooooooooooooooooooooooooooooooooooooooooooooooooooo  ooooo  ooooo  ooooooooooooooooooooooooooooooo",
"ooooooooooooooooooooooooooooooooooooooooooooooooooooo  ooooo  ooooo  ooooooooooooooooooooooooooooooo",
"ooooooooooooooooooooooooooooooooooooooooooooooooooooooo  ooooooo   ooooooooooooooooooooooooooooooooo",
"ooooooooooooooooooooooooooooooooooooooooooooooooooooooo  ooooooo   ooooooooooooooooooooooooooooooooo",
"oooooooooooooooo..oooooooooooooooooooooooooooooooooooooooooooooooooooooooooooooooooooooooooooooooooo",
"oooooooooooooooo..oooooooooooooooooooooooooooooooooooooooooooooooooooooooooooooooooooooooooooooooooo",
"oooooooooooooooooooooooooooooooooo+++ooooooooooooooooooooooooooooooooooooooooooooooooooooooooooooooo",
"oooooooooooooooooooooooooooooooooo+++ooooooooooooooooooooooooooooooooooooooooooooooooooooooooooooooo",
"ooooooooooooooooooooooooooo+++oooo+++oooo++ooooooooooooooooooooooooooooooooooooooooooooooooooooooooo",
"ooooooooooooooooooooooooooo+++oooo+++oooo++ooooooooooooooooooooooooooooooooooooooooooooooooooooooooo",
"oooooooooooooooooooooooooooooo++ooooooo++ooooooooooooooooooooooooooooooooooooooooooooooooooooooooooo",
"oooooooooooooooooooooooooooooo++ooooooo++ooooooooooooooooooooooooooooooooooooooooooooooooooooooooooo",
"oooooooooooooooooooooooooooooooooooooooooooooooooooooooooooooooooooooooooooooooooooooooooooooooooooo",
"oooooooooooooooooooooooooooooooooooooooooooooooooooooooooooooooooooooooooooooooooooooooooooooooooooo",
"oooooooooooooooooooooooooooooooooooooooooooooooooooooooooooooooooooooooooooooooooooooooooooooooooooo",
"oooooooooooooooooooooooooooooooooooooooooooooooooooooooooooooooooooooooooooooooooooooooooooooooooooo",
"..oooooooooooooooooooooooooooooooooooooooooooooooooooooooooooooooooooooooooooooooooooooooooooooooooo",
"..oooooooooooooooooooooooooooooooooooooooooooooooooooooooooooooooooooooooooooooooooooooooooooooooooo",
"oooooooooooooooooooooooooooooooooooooooooooooooooooooooooooooooooooooooooooooooooooooooooooooooooooo",
"oooooooooooooooooooooooooooooooooooooooooooooooooooooooooooooooooooooooooooooooooooooooooooooooooooo",
"oooooooooooooooooooooooooooooooooooooooooooooooooooooooooooooooooooooooooooooooooooooooooooooooooooo",
"oooooooooooooooooooooooooooooooooooooooooooooooooooooooooooooooooooooooooooooooooooooooooooooooooooo",
"oooooooooooooooooooooooooooooooooooooooooooooooooooooooooooooooooooooooooooooooooooooooooo  oooooooo",
"oooooooooooooooooooooooooooooooooooooooooooooooooooooooooooooooooooooooooooooooooooooooooo  oooooooo",
"ooooooooooooooooooooooooooooooooooooooooooooooooooooooooooooooooooooooooooooooooooo  ooooo  ooooo  o",
"ooooooooooooooooooooooooooooooooooooooooooooooooooooooooooooooooooooooooooooooooooo  ooooo  ooooo  o",
"ooooooooooooooooooooooooooooooooooooooooooooooooooooooooo   oooooooooooooooooooooooXX   oooooo   ooo",
"ooooooooooooooooooooooooooooooooooooooooooooooooooooooooo   oooooooooooooooooooooooXX   oooooo   ooo",
"oooooooooooooooooooooooooooooooooooooooooooooooooo   oooo   oooo   ooooooooooooooooooooooooooooooooo",
"oooooooooooooooooooooooooooooooooooooooooooooooooo   oooo   oooo   ooooooooooooooooooooooooooooooooo",
"OOooooooooooooooooooooo  oooooooooooooooooooooooooooo  ooooooo  oooooooooooooooooooooooooooooooooooo",
"OOooooooooooooooooooooo  oooooooooooooooooooooooooooo  ooooooo  oooooooooooooooooooooooooooooooooooo",
"OOooooOOOooooooo  ooooo  ooooo  oooooooooooooooooooooooooooooooooooooooooooooooooooooooooooooooooooo",
"OOooooOOOooooooo  ooooo  ooooo  oooooooooooooooooooooooooooooooooooooooooooooooooooooooooooooooooooo",
"ooooOOoooooooooooo  ooooooo   oooooooooooooooooooooooooooooooooooooooooooooooooooooooooooooooooooooo",
"ooooOOoooooooooooo  ooooooo   oooooooooooooooooooooooooooooooooooooooooooooooooooooooooooooooooooooo",
"ooooooooooooooooooooooooooooooooooooooooooooooooooooo..ooooooooooooooooooooooooooooooooooooooooooooo",
"ooooooooooooooooooooooooooooooooooooooooooooooooooooo..ooooooooooooooooooooooooooooooooooooooooooooo",
"ooooooooooooooooooooooooooooooooooooooooooooooooooooooooooooooooooooooo+++oooooooooooooooooooooooooo",
"ooooooooooooooooooooooooooooooooooooooooooooooooooooooooooooooooooooooo+++oooooooooooooooooooooooooo",
"oooooooooooooooooooooooooooooooooooooooooooooooooooooooooooooooo+++oooo+++oooo+++ooooooooooooooooooo",
"oooooooooooooooooooooooooooooooooooooooooooooooooooooooooooooooo+++oooo+++oooo+++ooooooooooooooooooo",
"ooooooooooooooooooooooooooooooooooooooooooooooooooooooooooooooooooo++ooooooo++oooooooooooooooooooooo",
"ooooooooooooooooooooooooooooooooooooooooooooooooooooooooooooooooooo++ooooooo++oooooooooooooooooooooo",
"oooooooooooooooooooooooooooooooooooooooooooooooooooooooooooooooooooooooooooooooooooooooooooooooooooo",
"oooooooooooooooooooooooooooooooooooooooooooooooooooooooooooooooooooooooooooooooooooooooooooooooooooo",
"  oooooooooooooooooooooooooooooooooooooooooooooooooooooooooooooooooooooooooooooooooooooooooooooooooo",
"  oooooooooooooooooooooooooooooooooooooooooooooooooooooooooooooooooooooooooooooooooooooooooooooooooo",
"  oooo   ooooooooooooooooooooooooooooooooooooooooooooooooooooooooooooooooooooooooooooooooooooooooooo",
"  oooo   ooooooooooooooooooooooooooooooooooooooooooooooooooooooooooooooooooooooooooooooooooooooooooo",
"oooo  oooooooooooooooooooooooooooooooooooooooooooooooooooooooooooooooooooooooooooooooooooooooooooooo",
"oooo  oooooooooooooooooooooooooooooooooooooooooooooooooooooooooooooooooooooooooooooooooooooooooooooo",
"oooooooooooooooooooooooooooooooooooooooooooooooooooooooooooooooooooooooooooooooooooooooooooooooooooo",
"oooooooooooooooooooooooooooooooooooooooooooooooooooooooooooooooooooooooooooooooooooooooooooooooooooo",
"ooooooooooooooooooooooooooooooooOOooooooooooooooooooo  ooooooooooooooooooooooooooooooooooooooooooooo",
"ooooooooooooooooooooooooooooooooOOooooooooooooooooooo  ooooooooooooooooooooooooooooooooooooooooooooo",
"oooooooooooooooooooooooooOOoooooOOoooooOOooooo  ooooo  ooooo  oooooooooooooooooooooooooooooooooooooo",
"oooooooooooooooooooooooooOOoooooOOoooooOOooooo  ooooo  ooooo  oooooooooooooooooooooooooooooooooooooo",
"oooooooooooooooooooooooooooOOOoooooooOOoooooooXX  ooooooo   oooooooooooooooooooooooooooooooooooooooo",
"oooooooooooooooooooooooooooOOOoooooooOOoooooooXX  ooooooo   oooooooooooooooooooooooooooooooooooooooo",
"oooooooooooooooooooooooooooooooooooooooooooooooooooooooooooooooooooooooooooooooooooooooooooooooooooo",
"oooooooooooooooooooooooooooooooooooooooooooooooooooooooooooooooooooooooooooooooooooooooooooooooooooo",
"ooooooooooooooooooooooooooooooooooooooooooooooooooooooooooooooooooooooooooOOooooooooooooooooooooo  o",
"ooooooooooooooooooooooooooooooooooooooooooooooooooooooooooooooooooooooooooOOooooooooooooooooooooo  o",
"oooooooooooooooooooooooooooooooooooooooooooooooooooooooooooooooooooOOoooooOOoooooOOooooooo  ooooo  o",
"oooooooooooooooooooooooooooooooooooooooooooooooooooooooooooooooooooOOoooooOOoooooOOooooooo  ooooo  o",
"oooooooooooooooooooooooooooooooooooooooooooooooooooooooooooooooooooooOOoooooooOOOooooooooooo  oooooo",
"oooooooooooooooooooooooooooooooooooooooooooooooooooooooooooooooooooooOOoooooooOOOooooooooooo  oooooo",
"oooooooooooooooooooooooooooooooooooooooooooooooooooooooooooooooooooooooooooooooooooooooooooooooooooo",
"oooooooooooooooooooooooooooooooooooooooooooooooooooooooooooooooooooooooooooooooooooooooooooooooooooo",
"oooooooooooooooooooooooooooooooooooooooooooooooooooooooooooooooooooooooooooooooooooooooooooooooooooo",
"oooooooooooooooooooooooooooooooooooooooooooooooooooooooooooooooooooooooooooooooooooooooooooooooooooo",
"oooooooooooooooooooooooooooooooooooooooooooooooooooooooooooooooooooooooooooooooooooooooooooooooooooo",
"oooooooooooooooooooooooooooooooooooooooooooooooooooooooooooooooooooooooooooooooooooooooooooooooooooo",
"oooooooooooooooooooooooooooooooooooooooooooooooooooooooooooooooooooooooooooooooooooooooooooooooooooo",
"oooooooooooooooooooooooooooooooooooooooooooooooooooooooooooooooooooooooooooooooooooooooooooooooooooo",
"oooooooooooooooooooooooooooooooooooooooooooooooooooooooooooooooooooooooooooooooooooooooooooooooooooo",
"oooooooooooooooooooooooooooooooooooooooooooooooooooooooooooooooooooooooooooooooooooooooooooooooooooo",
"oooooooooooooooooooooooooooooooooooooooooooooooooooooooooooooooooooooooooo  oooooooooooooooooooooooo",
"oooooooooooooooooooooooooooooooooooooooooooooooooooooooooooooooooooooooooo  oooooooooooooooooooooooo",
"ooooooooooooooooooooooooooooooooooooo..oooooooooooooooooooooooooooo  ooooo  ooooo  ooooooooooooooooo",
"ooooooooooooooooooooooooooooooooooooo..oooooooooooooooooooooooooooo  ooooo  ooooo  ooooooooooooooooo",
"ooooooooooooooooooooooooooooooooooooooooooooooooooooooooooooooooooooo  ooooooo   ooooooooooooooooooo",
"ooooooooooooooooooooooooooooooooooooooooooooooooooooooooooooooooooooo  ooooooo   ooooooooooooooooooo",
"oooooooooooooooooooooooooooooooooooooooooooooooooooooooooooooooooooooooooooooooooooooooooooooooooooo",
"oooooooooooooooooooooooooooooooooooooooooooooooooooooooooooooooooooooooooooooooooooooooooooooooooooo",
"oooooooooooooooooooooooooooooooooooooooooooooooooooooooooooooooooooooooooooooooooooooooooooooooooooo",
"oooooooooooooooooooooooooooooooooooooooooooooooooooooooooooooooooooooooooooooooooooooooooooooooooooo",
"ooOOoooooooooooooooooooooooooooooooooooooooooooooooooooooooooooooooooooooooooooooooooooooooooooooooO",
"ooOOoooooooooooooooooooooooooooooooooooooooooooooooooooooooooooooooooooooooooooooooooooooooooooooooO",
"OOoooooooooooooooooo   ooooooooooooooooooooooooooooooooooooooooooooooooooooooooooooooooooooooooooooo",
"OOoooooooooooooooooo   ooooooooooooooooooooooooooooooooooooooooooooooooooooooooooooooooooooooooooooo",
"ooooooooooooo   oooo   oooo   oooooooooooooooooooooooooooooooooooooooooooooooooooooooooooooooooooooo",
"ooooooooooooo   oooo   oooo   oooooooooooooooooooooooooooooooooooooooooooooooooooooooooooooooooooooo",
"oooooooooooooooo  ooooooo  ooooooooooooooooooooooooooooooooo  oooooooooooooooooooooooooooooooooooooo",
"oooooooooooooooo  ooooooo  ooooooooooooooooooooooooooooooooo  oooooooooooooooooooooooooooooooooooooo",
"ooooooooooooooooooooooooooooooooooooooooooooooooooooo  ooooo  ooooo  ooooooooooooooooooooooooooooooo",
"ooooooooooooooooooooooooooooooooooooooooooooooooooooo  ooooo  ooooo  ooooooooooooooooooooooooooooooo"
};
