/* XPM */
static char *_f4f3675293b41dad9a0207204e607a8J23WqnONtXfCaUPS[] = {
/* columns rows colors chars-per-pixel */
"64 64 206 2 ",
"   c white",
".  c #788098",
"X  c #F97060",
"o  c #414A52",
"O  c #3F4850",
"+  c #F99878",
"@  c #384046",
"#  c #3D454D",
"$  c #3A434A",
"%  c #A8A9A9",
"&  c #2C3338",
"*  c #2C3135",
"=  c #363E44",
"-  c #FC7160",
";  c #F9F9F9",
":  c #30373C",
">  c #353C42",
",  c #333A40",
"<  c #BEBFBF",
"1  c #FCFCFD",
"2  c #798199",
"3  c #383B3E",
"4  c #292E32",
"5  c #FEFEFF",
"6  c #FBFBFB",
"7  c #646567",
"8  c #475359",
"9  c #262B30",
"0  c #999B9E",
"q  c #23262A",
"w  c #585B5D",
"e  c #3E3E41",
"r  c #FB9A79",
"t  c #F4F4F4",
"y  c #F0EFEF",
"u  c #DDDEDE",
"i  c #9C5D58",
"p  c #B3625A",
"a  c #535556",
"s  c #BB6A5F",
"d  c #E0E1E3",
"f  c #9EA0A1",
"g  c gray95",
"h  c #EAE9EA",
"j  c #45484B",
"k  c #919394",
"l  c #A9ACAC",
"z  c #77797A",
"x  c #5D6066",
"c  c #818182",
"v  c #333437",
"b  c #A95D58",
"n  c #4F4043",
"m  c #735556",
"M  c #CACBCC",
"N  c #6C6F71",
"B  c #554B4F",
"V  c #684D51",
"C  c #F2816A",
"Z  c #DF615B",
"A  c #865553",
"S  c #FD7563",
"D  c #C5C3C3",
"F  c #ED6E5F",
"G  c #F8F7F7",
"H  c #A2A4A5",
"J  c #FB9476",
"K  c #949799",
"L  c #B9BABB",
"P  c #F97261",
"I  c #494E52",
"U  c #D6685D",
"Y  c #B25A55",
"T  c #494A4D",
"R  c #1C2023",
"E  c #62474A",
"W  c #72788E",
"Q  c #DFB1B7",
"!  c #F77563",
"~  c #C87163",
"^  c #804F4A",
"/  c #E57161",
"(  c #A33C4C",
")  c #914148",
"_  c #F46F60",
"`  c #B0444E",
"'  c #C3645B",
"]  c #FEFDFD",
"[  c #414547",
"{  c #808586",
"}  c #86868B",
"|  c #8A8A8B",
" . c #F46B5D",
".. c #D1605E",
"X. c #D77262",
"o. c #665155",
"O. c #FA7E68",
"+. c #CC675D",
"@. c #F77A65",
"#. c #E0695F",
"$. c #80879B",
"%. c #E7E8E8",
"&. c #8C929B",
"*. c #E5E5E6",
"=. c #D0D3D8",
"-. c #424D54",
";. c #8D8F92",
":. c #6B7387",
">. c #64403A",
",. c #D8D6D6",
"<. c #4E5154",
"1. c #E07C69",
"2. c #AF7369",
"3. c #E46658",
"4. c #BE4D50",
"5. c #BE6058",
"6. c #8B3541",
"7. c #A05652",
"8. c #C75A56",
"9. c #646B73",
"0. c gray81",
"q. c #7C7D7F",
"w. c #A8A6A7",
"e. c #FA8F73",
"r. c #D3D2D2",
"t. c #9598A2",
"y. c #C5C7C9",
"u. c #D8D9DA",
"i. c #747172",
"p. c #4E5C62",
"a. c #8E615D",
"s. c #AF6B61",
"d. c #B7A2A2",
"f. c #C87865",
"g. c #C4ACAE",
"h. c #AE4E46",
"j. c #F09375",
"k. c #564547",
"l. c #976661",
"z. c #5C5355",
"x. c #6D5361",
"c. c #78303A",
"v. c #975A57",
"b. c #924D51",
"n. c #AA615B",
"m. c #745150",
"M. c #CE7C83",
"N. c #838A8F",
"B. c #B1B3B3",
"V. c #BF878B",
"C. c #E87765",
"Z. c #DEBBC1",
"A. c #F2E3E6",
"S. c #6A6A6B",
"D. c #B77264",
"F. c #764B52",
"G. c #3C3336",
"H. c #A16F65",
"J. c #4F3538",
"K. c #BE7867",
"L. c #D66F6F",
"P. c #D57C66",
"I. c #A88588",
"U. c #7E3D40",
"Y. c #737679",
"T. c #9F635A",
"R. c #7E666A",
"E. c #6F464F",
"W. c #715E62",
"Q. c #E18B70",
"!. c #D3856C",
"~. c #3E2B29",
"^. c #7D8390",
"/. c #A2A6B4",
"(. c #757E86",
"). c #B4B6B8",
"_. c #ADADAE",
"`. c #CF5453",
"'. c #D8787A",
"]. c #9D5059",
"[. c #9E464E",
"{. c #AE6268",
"}. c #F0DEE1",
"|. c #5A2D2C",
" X c #C9B6B6",
".X c #8F6D67",
"XX c #312627",
"oX c #B0B4C2",
"OX c #64595A",
"+X c #CBBBBB",
"@X c #80797C",
"#X c #C85E55",
"$X c #EED3D7",
"%X c #6C3234",
"&X c #D48186",
"*X c #DEC2C6",
"=X c #F9856D",
"-X c #A8A0A1",
";X c #D48E94",
":X c #9C7779",
">X c #9B3948",
",X c #EC8E70",
"<X c #C2979B",
"1X c #E3D8DA",
"2X c #E7C8CC",
"3X c #492C23",
/* pixels */
"                                                                                                                                ",
"                y ]                                                                                                             ",
"                z f                                                                                                             ",
"                S.: %                                                                                                           ",
"                l @ = %                                                                                                         ",
"                y > -.3 %                                                                                                       ",
"        1 g g G 5 q.$ O 3 h                                                                                                     ",
"      G c 3 3 x < } > o > z 0.5                                                   5 d d 1                                       ",
"    G c 4 , @ @ 9 & B A B m.> % t                                           ; =.oXoX/.=.6                                       ",
"    f q w w [ = o.o.b ! s.C.a.: <.l l u                                   h /.0 &.=.G                                           ",
"    u.| 7 7 v & E ' 1.e.+ + j.D.E G.* T x ).g                           g /.H f f                       ] %.;                   ",
"    u.a , > @ # V D.+ + + + + + C.F +.^ E & w *.                        y.0 % N.u                       h v } 1                 ",
"  ,.I @ = O o o./ J + + + + + J @.O.O.O.F p n x *.                    1 &.H % N.*.                      *.* , | G               ",
"0.T * 3 3 R 9 n U J + + + + + X.s C C =XP F i n z                     6 &.H % N.*.                      t 7 = 4 <               ",
"a v z k [ & : = B 2.+ + + + e.C.s a.a.K.P - ' A k.L         h u d d 1 M k % % 0 l                         w.4 & H               ",
"g ; D j = $ $ $ T X.J + + e.! P O.C C s s ! @.i 5.k.L   ; ).^.9.(.(.f N.K % % f K 5                       w.4 O e L             ",
"  y.3 * j j j j @ A U s X.S X X P ! ! P K.a.~ T.b [.n L H :.W 2 $.$.^.^.t.t.t.&.;.5                     d c & o , 7 G           ",
"  w T f t ; ;   N , O ^ 3.Y ..Z  . .X X ! / s.z.B [.E.x :.2 . . . . 2 2 $.$.$.. N.              t r.z z [ & O O o 9 z g g 1     ",
"  d %.        y w = > OXV.1XA.Q M.L.Z  .X _ +.A E E x . 2 . . . . . . . . . . 9.=.          h w.e e >.>.V m B O # 4 9 3 3 | ;   ",
"              L 9 , q.G           $XQ &XU Y 7...` F.:.2 . . . . . . . . . 2 :.t.G       y d.s.Y b 5.P X X - b v R 9 * # # : ;.  ",
"            5 k q c G                 g c a.V.].( o.. 2 2 2 2 . . . . . 2 W 0 G   ,. Xg.v.F.3.- - - X ! @.h.|.9 @ o o O O = a   ",
"            g v z G                   l & w.  +XU.n x W W.E.V W . . . 2 :.} D :X:Xb.6.` 3.v.F X X X P C ^ R = o o o o o # & 7   ",
"            G f G                   *.w & w.  ).e = J.U.6.( ( ].} &.$.W V U.) >X( 4.Z X p ' - X X X S P.>.>.G.9 9 9 9 9 3 N u   ",
"                                    L & = l < I o e ) ` ` 4.8.4.I.l K x.( ( ` 4.Z  .- #.s./ #.U U #.- e.r r f.h.J.* & 9 T       ",
"                                  1 c : @ N 8 p.8 >.4.b.7.H.T.].I.l 0 F.`.`.Z X ! C X.m l.n.i i i i b ~ + + J S m O o $ I 1     ",
"                                  g 3 # = & 8 8 ^ p A T.5.+.b {.-X% 0 l.X S @.P.K..XR.z.K.X.X - - F ' P.+ + J P m O o O = 0 5   ",
"                                  g 3 , k.n @ A f.i A x.b.8.Z I.% % 0 H.S f.H.H.s C C s ~ - X X X X O.J + j.,XF V q q : O : 0   ",
"                                  g 3 & e e l.~ B J.:.2 W R.{.-X% % k D.f.2.1.@.P X X X b +.- X X X =X,X>.~.~.~.q : : @ O O 3 ;.",
"                                  G D S.v ;. Xn XXc.x.W 2 . t.% % K 2.s s.@.X X X X  . ...7.......Z @.!.^ XX: $ O o o O O O O R ",
"                                    y w k.m I 7 r..X6.x.W 2 &.% K 2.' p _ X X X  .Z M.M.M.V.}.A.A.2XL./ Q.P.U.~.& & # o O O @ e ",
"                                    < q * i.D     y W.6.x.7 Y.;.2.' p _ X F #XY '.Z.G   5           $Xb.3X/ _ E 9 9 q R * * <.,.",
"                                    G d d G         _.c.b.i s l.' p _ X p n z._.t                   5 D v |.) 3 o o $ 4 i.< y   ",
"                                                      d.7.7.v.o.m F X F k.7 g                           Y.* 4 9 R 4 @ $ & a u   ",
"                                                      5 %.<XL.5.i _ - n.& {                             u v O # @ & R : o , 7   ",
"                                                            }.'.' p S n.& c                             1 k , @ o o o O o @ a   ",
"                                        ] y.M 5           u 0 g.8.m.7.m.& c                               5 a R 9 q = # = 4 K   ",
"                                      d } q.@XV.A.      G a v E.8.z.Y.R.e w I.h                             w : q i.x e 7 D ;   ",
"                                    *.| 7 ;.A `.'.Q G   B.G.) ( 8.m.A m.W.S.Y d.                            w 4 c ; ; G ;       ",
"                                    u.N M t g.[.4.h.{. XR.c.>X` 8.i 3.XXk.) h.d.                            a Y.G               ",
"                                      =.t     g.n 7 %Xc.6.F.m ` U v.S ) c.` 6.d.                            < t                 ",
"                                            h { (.u u.i.OXr.*X..+.n.X 3.|.( ) +X                                                ",
"            ; k { { { { k *.5               *.).u.          ;X#Xb _ - h.%X) g.                                                  ",
"            ; z : -.8 8 8 p.f L Z.Z.Z.*X;                 Q #.b U #.b B @X0                                                     ",
"              h H [ : @ o 8 $ e A 1.1./ &X;X}.]       y Q #.p ~ / V I | k u                                                     ",
"  ] 5 5           y 0 <.= O m s j.r r !.5.3.Y <XQ Q Q L.Z p ~ 1.V j L K u                                                       ",
"  % 7 9.H u g     < N a & @ o.f.r + + Q.2.a.i E.^ 5.' X.p ~ C V [ M                                                             ",
"  %.w : $ $ N r.0 I $ # O O B C.Q.!.+ r + j.!..Xl.T.W.z.~ O.Y T M                                                               ",
"    %.7 3 , @ <.@ O > & $ # e E m s O.Q.j.r r e.S U p #./ Y B M                                                                 ",
"      ] D N , @ @ 4 7 c I , # O O T A m X.D.1.! F v.' i E j M                                                                   ",
"          6 | T a < y.9.-.# o o O = # O B <.k.V o.e G.: <.M                                                                     ",
"                  ,.w $ o # & q > o o # # p.= 4 4 z k l 6                                                                       ",
"  G D < < < < < L w # O : @ < } -.o & & p.8 = % u ;                                                                             ",
"  H 4 4 & > @ = @ # = : q.0.y N 8 & | x p.8 , <                                                                                 ",
"  y d { x , 4 > @ * [ K 5   B.8 # I y _.8 -.$ r.                                                                                ",
"          < % a , @ x f %.g 9.-.e ,.  1 k [ D                                                                                   ",
"              r.j $ # $ j N 8 , q.      6 y                                                                                     ",
"                0.j : O # > # : ,.                                                                                              ",
"                  0.i.* > $ > B.                                                                                                ",
"                    ] M S.[ B.                                                                                                  ",
"                        1 G                                                                                                     ",
"                                                                                                                                ",
"                                                                                                                                ",
"                                                                                                                                ",
"                                                                                                                                "
};
