/* XPM */
static char *a7fc5d74f5394c25a8dfa40b82d3dae8GMzhen9XbDxznSwl[] = {
/* columns rows colors chars-per-pixel */
"64 64 109 2 ",
"   c #70C8A0",
".  c #47704C",
"X  c None",
"o  c #80D3B0",
"O  c #80D2B0",
"+  c #70C8A0",
"@  c #38580F",
"#  c #38902F",
"$  c #71C9A2",
"%  c #71C8A0",
"&  c #B8F988",
"*  c #379131",
"=  c #6DC69E",
"-  c #BAFA89",
";  c #69C59C",
":  c #83D362",
">  c #54A843",
",  c #B6F787",
"<  c #388D2E",
"1  c #4FB88E",
"2  c #7DCD5E",
"3  c #385E14",
"4  c #99E272",
"5  c #5CBE96",
"6  c #386517",
"7  c #64C29A",
"8  c #387E25",
"9  c #74CBA5",
"0  c #80D060",
"q  c #59AD46",
"w  c #3A6216",
"e  c #389233",
"r  c #38892C",
"t  c #77C559",
"y  c #56BB93",
"u  c #499E3B",
"i  c #5EB149",
"p  c #385B11",
"a  c #B2F484",
"s  c #38862A",
"d  c #4DA33E",
"f  c #72C157",
"g  c #79C95B",
"h  c #387521",
"j  c #A6EB7B",
"k  c #93DD6D",
"l  c #A1E777",
"z  c #ACEF7F",
"x  c #38701F",
"c  c #89D666",
"v  c #388228",
"b  c #1E9C5A",
"n  c #2D9643",
"m  c #7ACFAA",
"M  c #3E9533",
"N  c #376A19",
"B  c #5BA16C",
"V  c #429836",
"C  c #91D86D",
"Z  c #64B54E",
"A  c #1FA168",
"S  c #AFF282",
"D  c #6FBE53",
"F  c #3A5216",
"G  c #83D5B3",
"H  c #5AB171",
"J  c #38AE80",
"K  c #695B58",
"L  c #6ABF92",
"P  c #509761",
"I  c #68B94F",
"U  c #69BB53",
"Y  c #31A876",
"T  c #64B685",
"R  c #64AF7F",
"E  c #85CF64",
"W  c #8DD169",
"Q  c #4E7C29",
"!  c #48B48C",
"~  c #403B2F",
"^  c #487A3B",
"/  c #6DAE4A",
"(  c #41B188",
")  c #3D4821",
"_  c #387822",
"`  c #51A861",
"'  c #4B864A",
"]  c #80CB61",
"[  c #497324",
"{  c #4BA250",
"}  c #446E22",
"|  c #3F691E",
" . c #716061",
".. c #6CA148",
"X. c #584F47",
"o. c #3E963E",
"O. c #5C5E44",
"+. c #52B586",
"@. c #5F983B",
"#. c #558332",
"$. c #65B98C",
"%. c #439A3D",
"&. c #5A8F34",
"*. c #4F9737",
"=. c #453C36",
"-. c #77CC7E",
";. c #AEEE80",
":. c #39AD77",
">. c #4F8A30",
/* pixels */
". . . . . . . . . . . . . . . . . . . . . . . . . . . . . . . . . . . . . . . . . . . . . . . . . . . . . . . . . . . . . . . . ",
"X X X O O X X X X X X X X X X X X X X X X X X X X X X X X X X X X X X X X X X X X X X X X X X X X X X X X X X X X X X X X X X X ",
"m + + m G % + 9 9 + + + + + + + + + + + + + + + + + + + + + + $ $ $ + + + + + + + + + + + + + + + + + + + + + + + + + + + % m 9 ",
"G 9 % m G % 9 m G + + + + + + + + + ; + + + + + + + + + + + = $.T L + + + + + + + + + + + + + + + + + + + + + + + + + + + $ G m ",
"9 G 9 + $ % G m + + + + + + + + % ; ( ; % + + + + + + + + $ R w 3 P $ + + + + + + + + + + + + + + + + + + + + + + + + + + + $ m ",
"% 9 $ + + + 9 9 + + + + + = 1 7 $ 7 ( 7 $ 7 1 = + + + + $ B #.W C ..' + + + + + % + + + + + + + + + + + + + + + + + + + + + + 9 ",
"+ + + + + + + + + + + + + = y y 7 = 5 = 7 y y = + + + + 9 B >., - / ' $ $ + + = 5 ; + + % + + + + + + + + + + + + + + + + + + + ",
"+ + + + + + + + + + + + + + % y 5 % % % 5 y % + + + + + T ` i , - g { R 7 = % ; ( 7 $ = 7 = + + + + + + + + + + + + + + + + + + ",
"+ + + + + + + + + + + + + + + + + + + + + + + + + = = ; ^ &.k , & 4 / w Y 5 + ; ! 7 % 7 ! ; % + + + + + + + + + + + + + + + + + ",
"+ + + + + + + + + + + + + + + + + + + + + + + $ $ T o.o.r I a & & 4 U s e o.` $ ; + 5 1 ; + + + + + + + + + + + + + + + + + + + ",
"+ + + + + + + + + + + + + + + + + + + + + + = ` ` Z E E U c - & & 4 g I ] E f ` ` L ; 5 + + + + + + + + + + + + + + + + + + + + ",
"+ + + + + + + + + + + + + + + + + + + + + + ; o.V D z - k 4 & & & 4 0 : j z : u # T $ % + + + + + + + + + + + + + + + + + + + + ",
"+ + + + + + + + + + + + + + + + + + + + + $ = o.U c c S k 4 & & & 4 0 : 0 0 : 2 M T $ + + + + + + + + + + + + + + + + + + + + + ",
"+ + + + + + + + + + + + + + + + + + + + + m G %.E , z c j , & & & 4 C S : 0 k l V T $ + + + + + + + + + + + + + + + + + + + + + ",
"+ + + + + + + + + + + + + + + + + + = ` { H C C k k k j a & & & & S z , j j l k C W U { { L $ + + + + + + + + + + + + + + + + + ",
"+ + + + + + + + + + + + + + + + + + + %.%.q Z ] 0 c 4 , & & & & & & & & - z l k E D i d # L $ + + + + + + + + + + + + + + + + + ",
"+ + + + + + + + + + + + + + + + + = T { f t # V D 4 & & & & & & & & & & a k 4 l u # i 2 d R L + + + + + + + + + + + + + + + + + ",
"+ + + + + + + + + + + + + + + + $ T | C , C M t l & & & & & & & & & & a c j j 0 2 u D , ;.Q P $ + + + + + + + + + + + + + + + + ",
"+ + + + + + + + + + + + + + + + $ = R > > q t l , z k , & & & & & & & , S 4 4 S z 0 Z > > H L $ + + + + + + + + + + + + + + + + ",
"+ + + + + + + + + + + + + + + $ R P -.t t D Z S C ] l , & & - & & & - , l 4 C ] , t I t t -.H B + + + + + + + + + + + + + + + + ",
"+ + + + + + + + + + + + + + + 9 P } c a z E d C U t - & & ;.l , & j l a : j k q k q U l & 4 &.[ + + + + + + + + + + + + + + + + ",
"+ + + + + + + + + + + + + + + $ P Q z , f d 2 V W & , , - ] > a - f q a c l , l %.D Z > a , ..^ + + + + + + + + + = + + + + + + ",
"+ + + + + + + + + + + + + + + 1 +.R d 2 4 j j %.W z c c S 4 2 , & k : , a 4 f d f 2 k l c > ` L + + + + + % + % ; ! ; % + % + + ",
"+ + + + + + + + + + + 5 5 $ $ 1 P P ] 4 S a k U I i > > : l j & - z j & l D u M 2 0 4 , l W ..P 9 G 9 + = y ; $ 7 ( 7 $ ; y = + ",
"+ + + + + + + + + + + 5 y 5 B P h [ , - S k U 0 U q q d i C & j j a S c D q d > 2 D E z & - ..| B R L $ = 1 5 ; ; 1 ; ; 5 1 = + ",
"+ + + + + + + + + + + + 7 Y 3 w w Q l a k I u 2 j - a : d D j g g k C M M U : : 0 > q E a ;...w w @ B 9 + + 1 y % + % y 1 + + + ",
"+ + + + + + + + + + + + + $.3 ..g / } f @.#.;.a , & a : 2 Z V M M V > g g 2 k z : l / [ 0 Q @.g D w B 9 + + = = + + + = = + + + ",
"+ + + + + + m m + + + + % ; R { I D p *.I C - & & & a : l f M I U u u 0 0 4 l k j 4 W f d w @.g d B L $ + + + + + + + + + + + + ",
"+ + m 9 + % G m + + m 9 + ; B > i > x h t S E a - a l 4 a k f 4 4 ] f 0 k l l 4 l 4 z l 8 x *.Z > B $.$ + + + + + + + + + + + + ",
"+ = G m 9 % G m % 9 G m $ $.| / q # V N / c > ;.z 4 C , & , a & & , j c z 4 k l c z a W 6 # M u D | B $ + + + + + + + + + + + + ",
"+ + + m G % $ + 9 G 9 + + L e * * u g %.# q S , Z Z , & & l C , & 4 k a c j W u z & ] e # f q # e < H $ + + + + + + + + + + + + ",
"+ + + 9 9 + + + $ 9 % + $ L | v > t 0 t d M > > M Z - & - a z & & S S - z & c e > > %.V f 2 g i < N B 9 + + + + + + + + + + + + ",
"+ + + + + + + + + + + $ T ' @ *.f : 0 Z i i q q V d ] , W C - & & - j g a C i e q q q i i g : g q w ^ B $ + + + + + + + + + + + ",
"+ + + + + + + + + + + $ B 6 [ / g 2 f d I : 0 : > < V W q t & z z , 4 d W > < V 2 : : t u I g 2 D Q 6 ' $ + + + + + + + + + + + ",
"+ + + + + + + + + + + $ H M t u > f M f 0 0 2 0 > * r w / 4 z : 0 l j t | 8 e %.2 2 2 0 2 %.i D M t d { $ + + + + + + + + + + + ",
"+ + + + + + + + + + + $ B 6 V x _ V e f : f u g g i < r M Z c 0 0 c t V r r d g 0 > i : 2 u M < 6 M h ' $ + + + + + + + + + + + ",
"+ + + + + + % + + + + 9 B p < 6 3 h e t U q Z 2 0 g i e q i > > > > q i M > f 0 0 U q i 2 u 8 6 @ r N ^ $ + + + + + + + + + + + ",
"+ + + + + + 7 ; + + + $ R ^ 8 Q [ N 8 i q i : 0 0 g I > t Z * d d M d 2 > i t 0 0 : U > I < x } Q 8 ^ P $ + + + + + + + + + + + ",
"+ + = = + + ! 5 $ + = = = R | / i v p 8 q t t 0 2 Z V 2 : i %.2 0 q u 0 0 > d g 0 g t I r w h d t } B ; + + + + + + + + + + + + ",
"+ + 1 y % + ! 5 $ = ! 7 B } D d e s @ p w w | t q e V 2 : i %.2 0 q u 0 0 > # u 2 #.w w 3 @ h e V f #.' $ + + + + + + + + + + + ",
"+ + 7 y y + 7 ; 7 1 5 + B w u M # < 8 8 8 h p Q r d D 2 i q Z d d i Z > g t q < Q w N 8 8 8 r * * d x ^ $ + + + + + + + + + + + ",
"+ + $ 7 y + % $ ; y = ; P 3 r * s 8 * e e v @ @ N *.: 0 u q 2 > > f f M g : Z h @ @ x e e e v 8 # # N ^ $ + + + + + + + + + + + ",
"+ + + + % + + + + % % y P } s r h N < r < v w w @ Q D D V u f 0 0 g i < Z f @.@ 3 3 h # r # h N s s x ' $ + + + + + + + + + + + ",
"+ + + + + + + + + + + + = T w p x # < 6 _ # < < N p 3 3 p p [ ] 0 &.p p 3 3 p 3 r < # s 3 s # 8 p p B + + + + + + + + + + + + + ",
"+ + + + + + + + + + + + + = R } x r 6 8 r # # # r v v v w @ p [ [ w @ p 8 v v s # # # < v N 8 v 3 P $.$ + + + + + + + + + + + + ",
"+ + + + + + + + + + + + + + $ ^ w x @ s * # # * 8 8 * * 8 h h x x h h _ < e s _ # # # # # w 6 N 3 +.; % + + + + + + + + + + + + ",
"+ + + + + + + + + + + + + + + ' 6 w p s * # # s x h # # s r * * * * < s # * v 6 v < # # < w 3 6 x L $ + + + + + + + + + + + + + ",
"+ + + + + + + + + + + + + + = Y n s 3 v < < < 3 8 * # < 6 x * # # * v 3 s # # r 3 v # < < 6 h n A 7 + + + + + + + + + + + = + + ",
"+ + % + + + + + + + + + % ; Y n * < s N 3 x < 3 8 e r 6 @ x e # # e v @ 3 8 e r p v 8 3 w 8 < * n A y $ + + + + + % + % 7 ! ; + ",
"+ % 5 5 % + + + + + + $ 5 :.n * # # # w @ 3 x p 6 8 r p @ w h # * 8 N @ @ 8 s N p N 6 @ @ s e # # n Y 1 % + + + ; y = $ 7 ( ; $ ",
"= 7 1 5 % + + + + + + $ 1 b * # # < 8 3 @ @ @ @ @ 6 _ F @ @ w # * x @ @ F x x @ @ @ @ @ @ h r # # # b J % + + + ; 1 5 ; ; 1 = ; ",
"; ! 7 % + + + + + + + $ 1 b * # * s @ @ @ @ @ @ @ @ F ~ F @ w r < x @ F ~ ) @ @ @ @ @ @ @ @ h * # # b J % + + + + + 1 5 $ + + y ",
"+ = + + + + + + + + + $ 1 b * # * s p @ @ @ @ @ @ @ F ~ X. .O.3 3 O. .K =.) @ @ @ @ @ @ @ @ _ * # # b J % + + + + + = = + + + = ",
"+ + + + + + + + + + + $ 1 b * # * s @ @ @ @ @ @ @ @ F ~ K  . .O.O.K  . .=.) @ @ @ @ @ @ @ @ h * # # b J % + + + + + + + + + + + ",
"+ + + + + + + + + + + $ 1 b * # # r x p @ @ @ @ @ @ @ ) X.K  . . . .K X.) F @ @ @ @ @ @ @ N v * # # b J % + + + + + + + + + + + ",
"+ + + + + + + + + + + $ y A n * # # # N p @ @ @ @ @ @ @ ) X.K K K K X.~ F @ @ @ @ @ @ p w r * # # e b J % + + + + + + + + + + + ",
"+ + + + + + + + + + + $ 5 J A n # # # # x @ @ @ @ @ @ @ @ ) ~ ~ ~ ~ ) @ @ @ @ @ @ @ @ w < # # # * b Y 1 % + + + + + + + + + + + ",
"+ + + + + + + + + + + + = 5 J A n # # # r v v p @ @ @ @ @ F F F F F F @ @ @ @ @ @ _ v s # # # e b Y y ; + + + + + + + + + + + + ",
"+ + + + + + + + + + + + + = 5 J A n n * # * # _ h N @ @ @ @ @ @ @ @ @ @ @ @ w h h r * * # n n b Y y ; $ + + + + + + + + + + + + ",
"+ + + + + + + + + + + + + + % y ( Y A n n n n * e v 6 6 6 6 6 6 6 6 6 6 6 6 h e * e n n n A Y J 1 = % + + + + + + + + + + + + + ",
"+ + + + + + + + + + + + + + + + + 7 ( A A A A e * * * # # # # # # # # # # # * * * b A A A J 5 + + + + + + + + + + + + + + + + + ",
"+ + + + + + + + + + + + + + + + + + ; 7 ! J J A b b b * # # # # # # # # # n b b b Y J ( 7 ; = + + + + + + + + + + + + + + + + + ",
"+ + + + + + + + + + + + + + + + + + % $ 7 5 5 1 1 1 +.H H H H H H H H H H +.1 1 1 y 5 7 + % + + + + + + + + + + + + + + + + + + ",
"+ + + 9 9 + + + + + + + + + + + + + + + % $ $ $ $ $ $ $ $ $ $ $ $ $ $ $ $ $ $ $ $ $ $ % + + + + + + + + + + + + + + + + + + + + "
};
